<svg width="12" height="13" viewBox="0 0 12 13" fill="none" xmlns="http://www.w3.org/2000/svg">
<path d="M4.59192 12.8774C4.95261 12.8774 5.23007 12.7219 5.42429 12.4251L11.7919 2.31907C11.9306 2.09292 12 1.89505 12 1.71131C12 1.21661 11.6671 0.87738 11.1676 0.87738C10.8347 0.87738 10.6266 1.00458 10.4324 1.32967L4.56417 10.8138L1.55377 6.87032C1.34567 6.60176 1.13759 6.48868 0.846256 6.48868C0.360707 6.48868 0 6.84204 0 7.3226C0 7.53462 0.0693709 7.74663 0.249718 7.95865L3.75955 12.4109C3.99539 12.736 4.2451 12.8774 4.59192 12.8774Z" fill="#FF1A05"/>
</svg>
