<svg width="25" height="25" viewBox="0 0 25 25" fill="none" xmlns="http://www.w3.org/2000/svg">
<g clip-path="url(#clip0_5_37)">
<path d="M25 12.5C25 5.59589 19.4041 0 12.5 0C5.59589 0 0 5.59589 0 12.5C0 18.7397 4.56849 23.911 10.5479 24.8493V16.1164H7.37671V12.5H10.5479V9.74658C10.5479 6.61644 12.411 4.88356 15.2671 4.88356C16.637 4.88356 18.0685 5.13014 18.0685 5.13014V8.20548H16.4931C14.9384 8.20548 14.4589 9.17123 14.4589 10.1575V12.5H17.9247L17.3699 16.1164H14.4589V24.8493C20.4315 23.911 25 18.7397 25 12.5Z" fill="#1877F2"/>
<path d="M17.363 16.1164L17.9178 12.5H14.4521V10.1575C14.4521 9.17122 14.9384 8.20546 16.4863 8.20546H18.0617V5.13012C18.0617 5.13012 16.6301 4.88354 15.2603 4.88354C12.4041 4.88354 10.5411 6.61642 10.5411 9.74656V12.5H7.36987V16.1164H10.5411V24.8493C11.1781 24.952 11.8288 25 12.4932 25C13.1575 25 13.8082 24.9452 14.4452 24.8493V16.1164H17.363Z" fill="white"/>
</g>
<defs>
<clipPath id="clip0_5_37">
<rect width="25" height="25" fill="white"/>
</clipPath>
</defs>
</svg>
