<svg width="25" height="25" viewBox="0 0 25 25" fill="none" xmlns="http://www.w3.org/2000/svg">
<g clip-path="url(#clip0_5_33)">
<path d="M6.33935 24.9116C4.85259 24.844 4.04494 24.5965 3.50774 24.387C2.79594 24.1099 2.28847 23.78 1.75424 23.2465C1.22002 22.713 0.889381 22.2055 0.613725 21.4937C0.404197 20.9566 0.156775 20.1489 0.089161 18.6621C0.0148602 17.055 0 16.5728 0 12.5011C0 8.42943 0.0163462 7.94796 0.088418 6.33935C0.156032 4.85259 0.40494 4.04642 0.612982 3.50774C0.890124 2.79594 1.22076 2.28847 1.7535 1.7535C2.28698 1.22002 2.79445 0.888638 3.507 0.612982C4.04419 0.403453 4.85184 0.156032 6.3386 0.088418C7.94647 0.0148602 8.42943 0 12.4996 0C16.5713 0 17.0528 0.0163462 18.6614 0.088418C20.1482 0.156032 20.9543 0.40494 21.493 0.612982C22.2048 0.888638 22.7123 1.22002 23.2465 1.7535C23.7807 2.28698 24.1099 2.7952 24.387 3.507C24.5965 4.04419 24.844 4.85184 24.9116 6.3386C24.9851 7.94722 25 8.42869 25 12.5004C25 16.5706 24.9851 17.0535 24.9116 18.6621C24.844 20.1489 24.5951 20.9566 24.387 21.4937C24.1099 22.2055 23.78 22.713 23.2465 23.2465C22.713 23.78 22.2048 24.1099 21.493 24.387C20.9558 24.5965 20.1482 24.844 18.6614 24.9116C17.0543 24.9851 16.5713 25 12.4996 25C8.42943 25 7.94647 24.9859 6.33935 24.9116Z" fill="url(#paint0_radial_5_33)"/>
<path d="M6.33935 24.9116C4.85259 24.844 4.04494 24.5965 3.50774 24.387C2.79594 24.1099 2.28847 23.78 1.75424 23.2465C1.22002 22.713 0.889381 22.2055 0.613725 21.4937C0.404197 20.9566 0.156775 20.1489 0.089161 18.6621C0.0148602 17.055 0 16.5728 0 12.5011C0 8.42943 0.0163462 7.94796 0.088418 6.33935C0.156032 4.85259 0.40494 4.04642 0.612982 3.50774C0.890124 2.79594 1.22076 2.28847 1.7535 1.7535C2.28698 1.22002 2.79445 0.888638 3.507 0.612982C4.04419 0.403453 4.85184 0.156032 6.3386 0.088418C7.94647 0.0148602 8.42943 0 12.4996 0C16.5713 0 17.0528 0.0163462 18.6614 0.088418C20.1482 0.156032 20.9543 0.40494 21.493 0.612982C22.2048 0.888638 22.7123 1.22002 23.2465 1.7535C23.7807 2.28698 24.1099 2.7952 24.387 3.507C24.5965 4.04419 24.844 4.85184 24.9116 6.3386C24.9851 7.94722 25 8.42869 25 12.5004C25 16.5706 24.9851 17.0535 24.9116 18.6621C24.844 20.1489 24.5951 20.9566 24.387 21.4937C24.1099 22.2055 23.78 22.713 23.2465 23.2465C22.713 23.78 22.2048 24.1099 21.493 24.387C20.9558 24.5965 20.1482 24.844 18.6614 24.9116C17.0543 24.9851 16.5713 25 12.4996 25C8.42943 25 7.94647 24.9859 6.33935 24.9116Z" fill="url(#paint1_radial_5_33)"/>
<path d="M9.30704 12.2551C9.30704 10.5454 10.6927 9.15902 12.4024 9.15902C14.1121 9.15902 15.4985 10.5454 15.4985 12.2551C15.4985 13.9649 14.1121 15.3512 12.4024 15.3512C10.6927 15.3512 9.30704 13.9649 9.30704 12.2551ZM7.63334 12.2551C7.63334 14.8891 9.76845 17.0242 12.4024 17.0242C15.0364 17.0242 17.1715 14.8891 17.1715 12.2551C17.1715 9.62117 15.0364 7.48606 12.4024 7.48606C9.76845 7.48606 7.63341 9.62102 7.63341 12.2551M16.2458 7.29696C16.2458 7.51739 16.311 7.7329 16.4334 7.91623C16.5558 8.09956 16.7298 8.24248 16.9334 8.32691C17.1371 8.41135 17.3611 8.43351 17.5774 8.39059C17.7936 8.34768 17.9922 8.24161 18.1481 8.0858C18.3041 7.93 18.4103 7.73145 18.4534 7.51528C18.4965 7.2991 18.4745 7.075 18.3902 6.87132C18.3059 6.66763 18.1631 6.49351 17.9799 6.37097C17.7967 6.24844 17.5812 6.18299 17.3608 6.1829H17.3604C17.0649 6.18304 16.7816 6.30044 16.5726 6.50933C16.3636 6.71821 16.2461 7.0015 16.2458 7.29696ZM8.65022 19.8151C7.74472 19.7739 7.25255 19.623 6.92547 19.4956C6.49185 19.3268 6.18247 19.1257 5.85718 18.8009C5.53189 18.476 5.33053 18.167 5.16246 17.7333C5.03496 17.4064 4.88413 16.9141 4.84297 16.0086C4.79794 15.0296 4.78895 14.7355 4.78895 12.2553C4.78895 9.77505 4.79869 9.48178 4.84297 8.50198C4.88421 7.59647 5.03615 7.10512 5.16246 6.77723C5.33128 6.34361 5.53233 6.03422 5.85718 5.70893C6.18202 5.38364 6.49111 5.18229 6.92547 5.01422C7.2524 4.88672 7.74472 4.73589 8.65022 4.69473C9.62921 4.6497 9.92329 4.64071 12.4024 4.64071C14.8815 4.64071 15.1759 4.65029 16.1557 4.69488C17.0612 4.73611 17.5526 4.88806 17.8805 5.01437C18.3141 5.18244 18.6235 5.38424 18.9488 5.70908C19.274 6.03392 19.4747 6.34376 19.6435 6.77738C19.771 7.1043 19.9218 7.59662 19.963 8.50212C20.008 9.48193 20.017 9.77519 20.017 12.2554C20.017 14.7357 20.008 15.0289 19.963 16.0087C19.9217 16.9142 19.7702 17.4064 19.6435 17.7335C19.4747 18.1671 19.2736 18.4765 18.9488 18.801C18.6239 19.1256 18.3141 19.3269 17.8805 19.4957C17.5535 19.6232 17.0612 19.7741 16.1557 19.8152C15.1767 19.8603 14.8826 19.8693 12.4024 19.8693C9.92218 19.8693 9.62891 19.8603 8.65022 19.8152M8.57332 3.02378C7.5846 3.0688 6.90898 3.22558 6.31896 3.45517C5.70828 3.69226 5.19062 4.01034 4.67371 4.52644C4.1568 5.04253 3.83954 5.56026 3.60244 6.17168C3.37285 6.76207 3.21608 7.43732 3.17105 8.42604C3.12528 9.41632 3.11481 9.73292 3.11481 12.2551C3.11481 14.7773 3.12528 15.0939 3.17105 16.0842C3.21608 17.073 3.37285 17.7482 3.60244 18.3386C3.83954 18.9493 4.15688 19.468 4.67371 19.9838C5.19055 20.4997 5.70754 20.8173 6.31896 21.0551C6.91009 21.2847 7.5846 21.4415 8.57332 21.4865C9.56412 21.5315 9.8802 21.5427 12.4024 21.5427C14.9246 21.5427 15.2412 21.5323 16.2315 21.4865C17.2203 21.4415 17.8955 21.2847 18.4859 21.0551C19.0965 20.8173 19.6142 20.4999 20.1311 19.9838C20.648 19.4677 20.9646 18.9493 21.2024 18.3386C21.432 17.7482 21.5895 17.0729 21.6338 16.0842C21.6788 15.0932 21.6893 14.7773 21.6893 12.2551C21.6893 9.73292 21.6788 9.41632 21.6338 8.42604C21.5887 7.43724 21.432 6.7617 21.2024 6.17168C20.9646 5.561 20.6472 5.04335 20.1311 4.52644C19.615 4.00952 19.0965 3.69226 18.4866 3.45517C17.8955 3.22558 17.2202 3.06806 16.2322 3.02378C15.2418 2.97853 14.9254 2.96753 12.4035 2.96753C9.88168 2.96753 9.56449 2.97801 8.57369 3.02378" fill="white"/>
</g>
<defs>
<radialGradient id="paint0_radial_5_33" cx="0" cy="0" r="1" gradientUnits="userSpaceOnUse" gradientTransform="translate(1.61797 24.4523) scale(31.7407)">
<stop offset="0.09" stop-color="#FA8F21"/>
<stop offset="0.78" stop-color="#D82D7E"/>
</radialGradient>
<radialGradient id="paint1_radial_5_33" cx="0" cy="0" r="1" gradientUnits="userSpaceOnUse" gradientTransform="translate(17.3166 23.6496) scale(27.9321)">
<stop offset="0.64" stop-color="#8C3AAA" stop-opacity="0"/>
<stop offset="1" stop-color="#8C3AAA"/>
</radialGradient>
<clipPath id="clip0_5_33">
<rect width="25" height="25" fill="white"/>
</clipPath>
</defs>
</svg>
