<svg width="25" height="25" viewBox="0 0 25 25" fill="none" xmlns="http://www.w3.org/2000/svg">
<path d="M24.4543 6.48281C24.3105 5.95258 24.0304 5.4692 23.6419 5.08072C23.2535 4.69224 22.7701 4.41218 22.2398 4.26836C20.2984 3.73828 12.4844 3.73828 12.4844 3.73828C12.4844 3.73828 4.66992 3.75391 2.72813 4.28398C2.19789 4.4278 1.71452 4.70787 1.32604 5.09635C0.937555 5.48483 0.657491 5.9682 0.513672 6.49844C0 8.44023 0 12.5 0 12.5C0 12.5 0 16.5598 0.529687 18.5172C0.673507 19.0474 0.953571 19.5308 1.34205 19.9193C1.73053 20.3078 2.2139 20.5878 2.74414 20.7316C4.68555 21.2617 12.5 21.2617 12.5 21.2617C12.5 21.2617 20.3145 21.2617 22.2563 20.732C22.7865 20.5882 23.2699 20.3081 23.6583 19.9197C24.0468 19.5312 24.3269 19.0478 24.4707 18.5176C25 16.5758 25 12.5 25 12.5C25 12.5 24.9844 8.44023 24.4543 6.48281Z" fill="#FF0000"/>
<path d="M9.99685 16.2547L16.4793 12.5L9.99646 8.74536L9.99685 16.2547Z" fill="white"/>
</svg>
